<?xml version="1.0" encoding="UTF-8"?>
<svg xmlns="http://www.w3.org/2000/svg" xmlns:xlink="http://www.w3.org/1999/xlink" viewBox="0 0 32 32" version="1.1" width="50px" height="50px">
<g id="surface1">
<path style=" " d="M 21.1875 2.28125 L 19.78125 3.71875 L 24.0625 8 L 12 8 L 12 10 L 24.0625 10 L 19.78125 14.28125 L 21.1875 15.71875 L 27.90625 9 Z M 4 8 L 4 10 L 6 10 L 6 8 Z M 8 8 L 8 10 L 10 10 L 10 8 Z M 9.8125 16.28125 L 3.09375 23 L 9.8125 29.71875 L 11.21875 28.28125 L 6.9375 24 L 19 24 L 19 22 L 6.9375 22 L 11.21875 17.71875 Z M 21 22 L 21 24 L 23 24 L 23 22 Z M 25 22 L 25 24 L 27 24 L 27 22 Z "/>
</g>
</svg>
